Coordinates
version=1
nRows=26
nColumns=24
inDegrees=yes

Units are S.I. units (second, meters, Newtons, ...)
Angles are in degrees.

endheader
time	pelvis_tilt	pelvis_list	pelvis_rotation	pelvis_tx	pelvis_ty	pelvis_tz	hip_flexion_r	hip_adduction_r	hip_rotation_r	knee_angle_r	ankle_angle_r	subtalar_angle_r	mtp_angle_r	hip_flexion_l	hip_adduction_l	hip_rotation_l	knee_angle_l	ankle_angle_l	subtalar_angle_l	mtp_angle_l	lumbar_extension	lumbar_bending	lumbar_rotation
      0.55800000	      1.19984583	      9.43822566	     -4.44153611	     -0.77947766	      0.97651283	      0.27565494	     24.49259544	     -8.69252419	      0.92472242	      0.76179307	      1.95658253	     -0.94486569	      0.66989322	    -20.48040105	     14.27762448	     11.21540738	      0.98613152	     10.18783470	    -17.06364791	     -0.72635137	    -13.50203079	     -1.96570493	     -8.28731636
      0.56216667	      1.12556219	      9.31958271	     -4.41366627	     -0.77388030	      0.97561650	      0.27605204	     24.51950549	     -8.52879982	      1.27338147	      0.58892018	      1.61866177	     -1.44649027	      4.39424498	    -20.49573278	     14.17039898	     11.09583018	      0.40698780	     10.76191680	    -16.64926934	     -5.96230446	    -13.42076503	     -1.79806582	     -8.32623653
      0.56633333	      1.03374518	      9.16607039	     -4.40746715	     -0.76822571	      0.97474164	      0.27648931	     24.58179696	     -8.31715494	      1.64597119	      0.29740170	      1.32807302	     -1.93706598	      4.41236745	    -20.50092864	     14.03268218	     10.97237110	     -0.13517321	     11.08707191	    -16.45450567	     -5.93062497	    -13.31751538	     -1.59832274	     -8.20897983
      0.57050000	      0.96032891	      8.98865483	     -4.40848855	     -0.76254371	      0.97393881	      0.27695808	     24.62828502	     -8.07994682	      2.02901740	     -0.07126153	      1.01828590	     -2.48356594	      4.43045067	    -20.49494323	     13.87471106	     10.74920277	     -0.74336851	     11.49271758	    -16.09636177	     -5.88410743	    -13.23754228	     -1.36467087	     -8.14421110
      0.57466667	      0.91861663	      8.78239703	     -4.42350473	     -0.75683800	      0.97322237	      0.27746152	     24.65307317	     -7.81178862	      2.39150834	     -0.52556019	      0.69946502	     -2.99813159	      4.46022335	    -20.49297117	     13.69486849	     10.43518204	     -1.41697253	     11.93716784	    -15.64043012	     -5.79879563	    -13.20834927	     -1.10481435	     -8.06406892
      0.57883333	      0.79723885	      8.58490216	     -4.42032841	     -0.75108514	      0.97245309	      0.27794802	     24.78775136	     -7.54686636	      2.73909505	     -1.08463646	      0.33364917	     -3.57601149	      4.46764353	    -20.41646215	     13.51718998	     10.24781801	     -2.06714652	     12.24195338	    -15.40549028	     -5.73882344	    -13.06207421	     -0.84550399	     -7.96863656
      0.58300000	      0.73480359	      8.35201492	     -4.43385778	     -0.74532286	      0.97181067	      0.27849268	     24.84670046	     -7.24506455	      3.09730223	     -1.66066967	     -0.07494913	     -4.20891894	      4.47483482	    -20.35009435	     13.31087135	      9.89243865	     -2.83357137	     12.63944264	    -14.95550450	     -5.63559323	    -13.01355742	     -0.55856000	     -7.87247036
      0.58716667	      0.65050637	      8.11486830	     -4.45394822	     -0.73951981	      0.97117478	      0.27905858	     24.95961619	     -6.93095520	      3.41990537	     -2.33708084	     -0.48344208	     -4.80550423	      4.47247949	    -20.26466614	     13.10108161	      9.58908119	     -3.58535481	     12.97125532	    -14.59720566	     -5.51500752	    -12.92082067	     -0.25991324	     -7.76483631
      0.59133333	      0.54037299	      7.86506283	     -4.48551978	     -0.73365486	      0.97053598	      0.27964813	     25.11838404	     -6.59456053	      3.72269298	     -3.08386817	     -0.92034860	     -5.40461983	      4.45966256	    -20.16385368	     12.88148002	      9.31845748	     -4.31529142	     13.23111802	    -14.33063227	     -5.41496044	    -12.77144996	      0.06171699	     -7.64167344
      0.59550000	      0.44902334	      7.60578099	     -4.51723015	     -0.72778909	      0.96996986	      0.28026118	     25.26136663	     -6.24897716	      4.00342703	     -3.86432362	     -1.36114775	     -6.00893793	      4.43736729	    -20.03866318	     12.65393587	      8.98667636	     -5.13637916	     13.50673939	    -13.99370750	     -5.29201174	    -12.66709590	      0.38654802	     -7.51772168
      0.59966667	      0.39004552	      7.33231971	     -4.54838157	     -0.72191485	      0.96949190	      0.28090223	     25.37274684	     -5.89266439	      4.24701949	     -4.67526654	     -1.77969627	     -6.57423220	      4.39726018	    -19.91415720	     12.41100471	      8.59786657	     -6.02823133	     13.77509412	    -13.60262910	     -5.09358150	    -12.62212033	      0.71871053	     -7.39720767
      0.60383333	      0.27050999	      7.06829872	     -4.59788941	     -0.71596938	      0.96895407	      0.28156095	     25.58951353	     -5.52999777	      4.45489214	     -5.58361148	     -2.18740606	     -7.07678232	      4.35962427	    -19.75758965	     12.18525536	      8.33681512	     -6.84741115	     13.90003628	    -13.44652333	     -4.95194234	    -12.46511457	      1.05171882	     -7.26433704
      0.60800000	      0.18372354	      6.79775844	     -4.64263828	     -0.71003019	      0.96850155	      0.28224215	     25.76485020	     -5.16567031	      4.64037238	     -6.49272091	     -2.58133764	     -7.59395407	      4.30730505	    -19.58437421	     11.95096445	      7.98974218	     -7.77711889	     14.04921539	    -13.18548388	     -4.76674275	    -12.35447197	      1.39571905	     -7.12577657
      0.61216667	      0.11563370	      6.51200833	     -4.68523577	     -0.70407409	      0.96812170	      0.28295152	     25.91896760	     -4.78880440	      4.79179734	     -7.41912908	     -2.91762290	     -8.05687226	      4.22783002	    -19.40889664	     11.69810083	      7.62988636	     -8.74912079	     14.16672250	    -12.91789352	     -4.49188540	    -12.29392924	      1.73658180	     -6.99084661
      0.61633333	      0.03867321	      6.22956015	     -4.73446345	     -0.69809178	      0.96775850	      0.28367209	     26.09890407	     -4.41228759	      4.90957584	     -8.38912230	     -3.20372832	     -8.47189555	      4.11988944	    -19.21338267	     11.45318989	      7.30609670	     -9.74342883	     14.20953885	    -12.72932093	     -4.13162078	    -12.20239362	      2.08547927	     -6.85743156
      0.62050000	     -0.04641222	      5.95594800	     -4.79216167	     -0.69208001	      0.96742139	      0.28441013	     26.30100340	     -4.04140914	      4.99574465	     -9.39421883	     -3.43764661	     -8.81986871	      4.02068921	    -19.00535964	     11.22172724	      7.01954588	    -10.73181735	     14.14406282	    -12.66399263	     -3.81163425	    -12.09416270	      2.42461561	     -6.71639038
      0.62466667	     -0.08825603	      5.64268843	     -4.86577805	     -0.68601826	      0.96717118	      0.28520240	     26.44795478	     -3.62843812	      5.06074021	    -10.40687310	     -3.59458776	     -9.14967571	      3.77742703	    -18.81926182	     10.94710859	      6.64377268	    -11.77774677	     14.14646355	    -12.40859138	     -3.01257643	    -12.03351901	      2.82283169	     -6.58039309
      0.62883333	     -0.15567182	      5.35226661	     -4.93262348	     -0.67996651	      0.96693112	      0.28600255	     26.62326009	     -3.24057423	      5.10138236	    -11.41965311	     -3.67320641	     -9.34849940	      3.03269573	    -18.56737980	     10.69055340	      6.25093930	    -12.88500851	     13.93745126	    -12.28538158	     -0.61205600	    -11.95094225	      3.17050810	     -6.43744803
      0.63300000	     -0.20751731	      5.06647229	     -4.99397343	     -0.67387742	      0.96677638	      0.28677511	     26.77631211	     -2.86277877	      5.13449516	    -12.43783005	     -3.68743752	     -9.61893572	      3.00691191	    -18.36580955	     10.46241472	      6.12195820	    -13.91873833	     13.58533393	    -12.56287084	     -0.54683229	    -11.88451500	      3.52925568	     -6.33828709
      0.63716667	     -0.27673713	      4.80841609	     -5.04486995	     -0.66781047	      0.96662512	      0.28755872	     26.95814978	     -2.51607475	      5.13485360	    -13.47406594	     -3.65357501	     -9.81872125	      2.95238781	    -18.07816915	     10.24579321	      5.87131815	    -15.07644472	     13.26241412	    -12.63086392	     -0.37717928	    -11.77978197	      3.84097200	     -6.19980302
      0.64133333	     -0.32468948	      4.51453102	     -5.10623220	     -0.66170676	      0.96653878	      0.28838940	     27.09432634	     -2.13100751	      5.13144358	    -14.48510157	     -3.51382458	     -9.97089894	      2.87650013	    -17.78592624	      9.98722633	      5.55533798	    -16.28872608	     12.91139982	    -12.62422958	     -0.11928952	    -11.71351302	      4.19610722	     -6.06907130
      0.64550000	     -0.35203073	      4.21960933	     -5.16718724	     -0.65559414	      0.96652594	      0.28922984	     27.19662305	     -1.74799974	      5.12082909	    -15.48039925	     -3.29877515	    -10.10322734	      2.77437193	    -17.49211917	      9.72490106	      5.23566365	    -17.53304115	     12.48374665	    -12.63162553	      0.24183753	    -11.66229973	      4.55435900	     -5.94355932
      0.64966667	     -0.34262716	      3.87714781	     -5.21638905	     -0.64944900	      0.96663596	      0.29011023	     27.21066913	     -1.31905109	      5.12027421	    -16.40608171	     -3.03767353	    -10.33593184	      1.34104740	    -17.21612704	      9.39849936	      4.88401770	    -18.80545419	     11.90661638	    -12.65857766	      5.19982476	    -11.66957940	      4.96405339	     -5.83905820
      0.65383333	     -0.34628934	      3.57814091	     -5.27600028	     -0.64331095	      0.96674423	      0.29096247	     27.26008391	     -0.93724799	      5.09338043	    -17.36489322	     -2.66805566	    -10.38037037	      1.32850706	    -16.89860643	      9.12722213	      4.57218066	    -20.11583314	     11.28991124	    -12.74342732	      5.24915311	    -11.65098390	      5.31889852	     -5.73189424
      0.65800000	     -0.35457961	      3.27586980	     -5.31683664	     -0.63717038	      0.96688543	      0.29182574	     27.30363726	     -0.55756864	      5.03930780	    -18.31499823	     -2.24824761	    -10.45540565	      1.28199032	    -16.53645261	      8.83193517	      4.23390912	    -21.48930941	     10.64665770	    -12.71025354	      5.43086717	    -11.62368122	      5.67749674	     -5.61282021
      0.66216667	     -0.35542613	      2.96245831	     -5.34353656	     -0.63103663	      0.96708592	      0.29270497	     27.29935933	     -0.16954146	      5.00416520	    -19.19257565	     -1.75349763	    -10.53090310	      1.15284868	    -16.14008019	      8.50574126	      3.85860332	    -22.92941651	      9.94891266	    -12.61668231	      5.93394205	    -11.60569507	      6.03453847	     -5.49501975
